<?xml version="1.0" encoding="utf-8"?>
<!DOCTYPE svg PUBLIC "-//W3C//DTD SVG 1.1//EN" "http://www.w3.org/Graphics/SVG/1.1/DTD/svg11.dtd">
<svg version="1.1"
	 id="svg2" xmlns:svg="http://www.w3.org/2000/svg" xmlns:dc="http://purl.org/dc/elements/1.1/" xmlns:cc="http://creativecommons.org/ns#" xmlns:inkscape="http://www.inkscape.org/namespaces/inkscape" xmlns:sodipodi="http://sodipodi.sourceforge.net/DTD/sodipodi-0.dtd" xmlns:rdf="http://www.w3.org/1999/02/22-rdf-syntax-ns#" sodipodi:docname="odc-logo-variants.svg" inkscape:version="0.48.2 r9819"
	 xmlns="http://www.w3.org/2000/svg" xmlns:xlink="http://www.w3.org/1999/xlink" x="0px" y="0px" width="288px"
	 height="103px" viewBox="0 0 287.899 103.094" enable-background="new 0 0 287.899 103.094" xml:space="preserve">
<path id="path3797" inkscape:connector-curvature="0" fill="#880033" d="M51.347,0C22.99,0,0,23.08,0,51.546
	c0,28.466,22.99,51.546,51.347,51.546s51.347-23.08,51.347-51.546S79.703,0,51.347,0L51.347,0z M112.963,0.018v103.075h25.664
	c28.356,0,51.347-23.08,51.347-51.546c0-28.466-22.99-51.528-51.347-51.528L112.963,0.018L112.963,0.018z M250.353,0.018
	c-12.726,0.305-25.361,5.345-35.073,15.095c-20.051,20.129-20.051,52.756,0,72.885c20.051,20.129,52.569,20.129,72.62,0
	l-36.31-36.451l36.31-36.433C277.561,4.734,263.9-0.306,250.353,0.018L250.353,0.018z"/>
</svg>
