<?xml version="1.0" encoding="utf-8"?>
<!DOCTYPE svg PUBLIC "-//W3C//DTD SVG 1.1//EN" "http://www.w3.org/Graphics/SVG/1.1/DTD/svg11.dtd">
<svg version="1.1" id="taz" xmlns="http://www.w3.org/2000/svg" xmlns:xlink="http://www.w3.org/1999/xlink" x="0px" y="0px"
	 width="130px" height="18px" viewBox="0 0 130 18" enable-background="new 0 0 130 18" xml:space="preserve">
<rect fill="#961D2A" width="130" height="18"/>
<path fill="#FFFFFF" d="M97.829,4.558V4.275c0-0.7,0.25-0.933,0.882-0.933h0.449c0.633,0,0.883,0.233,0.883,0.933v0.283
	c0,0.683-0.25,0.931-0.883,0.931h-0.449C98.078,5.489,97.829,5.241,97.829,4.558z M43.98,13.996v0.599
	c0,0.149-0.083,0.267-0.25,0.283l-1.998,0.182c-0.2,0.017-0.332-0.067-0.35-0.25l-0.116-1.033c-0.567,1.066-1.165,1.382-1.965,1.382
	c-1.03,0-1.701-0.666-1.952-2.515c-0.073-0.542-0.112-1.186-0.112-1.944c0-3.18,0.983-4.528,2.447-4.528
	c0.583,0,1.015,0.199,1.299,0.449V4.907L40.15,4.723c-0.167-0.034-0.233-0.149-0.233-0.282V3.84c0-0.149,0.083-0.267,0.25-0.282
	l2.398-0.201c0.2-0.017,0.349,0.067,0.349,0.283v9.003v0.884l0.833,0.184C43.913,13.746,43.98,13.861,43.98,13.996z M40.723,12.645
	c0.079-0.132,0.165-0.279,0.261-0.447V8.086c-0.25-0.282-0.583-0.449-0.899-0.449c-0.483,0-0.849,0.567-0.849,2.829
	c0,0.976,0.036,1.684,0.103,2.178c0.091,0.677,0.244,0.951,0.445,0.951C40.027,13.596,40.256,13.414,40.723,12.645z M47.508,13.695
	l-0.831-0.182v-0.869V6.47c0-0.216-0.15-0.299-0.35-0.282l-2.396,0.199c-0.167,0.017-0.25,0.133-0.25,0.283v0.599
	c0,0.133,0.066,0.25,0.233,0.283l0.831,0.182v4.908v2.134c0,0.214,0.15,0.299,0.35,0.282l2.396-0.199
	c0.167-0.017,0.25-0.135,0.25-0.283v-0.599C47.741,13.846,47.675,13.729,47.508,13.695z M45.444,5.489h0.449
	c0.633,0,0.882-0.248,0.882-0.931V4.275c0-0.7-0.25-0.933-0.882-0.933h-0.449c-0.631,0-0.882,0.233-0.882,0.933v0.283
	C44.561,5.241,44.812,5.489,45.444,5.489z M67.266,13.996v0.599l0,0c0,0.149-0.083,0.267-0.25,0.283l-1.998,0.182
	c-0.199,0.017-0.332-0.067-0.349-0.25l-0.099-0.982c-0.35,0.599-0.833,1.331-1.814,1.331c-1.199,0-1.915-0.798-1.915-2.497v-0.018
	c0.01-2.332,1.652-2.993,3.047-2.993h0.382V8.834c0-0.881-0.299-1.281-0.932-1.281c-0.582,0-0.998,0.348-1.431,0.849
	c-0.167,0.182-0.301,0.25-0.483,0.083l-0.5-0.417c-0.149-0.115-0.165-0.316-0.033-0.498c0.633-0.85,1.649-1.466,2.764-1.466
	c1.73,0,2.547,0.967,2.547,2.613v4.81l0.831,0.184C67.2,13.746,67.266,13.861,67.266,13.996z M64.27,11.016h-0.382
	c-0.633,0-1.082,0.366-1.082,1.431c0,0.07,0.001,0.135,0.003,0.198c0.022,0.712,0.167,0.951,0.397,0.951
	c0.161,0,0.414-0.169,0.87-0.951c0.062-0.104,0.127-0.221,0.194-0.346L64.27,11.016L64.27,11.016z M60.126,13.361
	c-0.099-0.149-0.266-0.165-0.4-0.066c-0.332,0.25-0.549,0.332-0.716,0.332s-0.25-0.083-0.25-0.699v-0.285V7.701h1.415
	c0.167,0,0.283-0.1,0.283-0.283V6.552c0-0.182-0.116-0.282-0.283-0.282H58.76V4.107c0-0.167-0.117-0.351-0.383-0.285l-0.798,0.184
	c-0.183,0.034-0.283,0.15-0.334,0.383L56.829,6.27H56.13c-0.165,0-0.283,0.1-0.283,0.282v0.866c0,0.184,0.117,0.283,0.283,0.283
	h0.699v4.942v0.386c0,1.547,0.649,2.129,1.649,2.129c0.716,0,1.315-0.25,1.73-0.666c0.068-0.066,0.2-0.199,0.25-0.282
	c0.084-0.133,0.084-0.267-0.017-0.4L60.126,13.361z M53.65,13.312c0.117,0.133,0.117,0.25-0.017,0.434
	c-0.598,0.832-1.747,1.414-2.73,1.414c-1.227,0-2.326-0.352-2.715-2.515c-0.095-0.536-0.148-1.183-0.148-1.962
	c0-3.545,1.115-4.594,2.897-4.594c1.847,0,2.679,0.983,2.679,4.029v0.599c0,0.184-0.116,0.283-0.349,0.3l-3.229,0.316v0.133
	c0,0.472,0.028,0.864,0.094,1.18l0,0c0.139,0.663,0.451,0.983,1.038,0.983c1.097,0,1.563-0.83,1.914-0.83
	c0.099,0,0.167,0.032,0.25,0.132L53.65,13.312z M50.039,9.916l1.631-0.132c0-1.765-0.216-2.381-0.783-2.381
	C50.438,7.404,50.039,7.804,50.039,9.916z M112.627,13.712L112.627,13.712l-0.833-0.184v-0.884V6.47
	c0-0.216-0.149-0.299-0.349-0.282l-2.114,0.199c-0.167,0.017-0.251,0.133-0.251,0.283v0.665c0,0.133,0.068,0.25,0.233,0.283
	l0.55,0.116v4.461c-0.095,0.169-0.18,0.316-0.261,0.447c-0.467,0.769-0.696,0.951-0.937,0.951c-0.211,0-0.347-0.21-0.404-0.951
	c-0.019-0.257-0.029-0.579-0.029-0.979V6.468c0-0.216-0.15-0.299-0.35-0.282l-2.114,0.199c-0.167,0.017-0.25,0.133-0.25,0.283v0.665
	c0,0.133,0.066,0.25,0.233,0.283l0.549,0.116v4.145c0,0.271,0.008,0.525,0.026,0.763l0,0c0.125,1.719,0.714,2.515,1.856,2.515
	c0.798,0,1.398-0.316,1.963-1.382l0.117,1.033c0.016,0.182,0.149,0.267,0.349,0.25l1.997-0.182c0.167-0.017,0.25-0.135,0.25-0.283
	v-0.599C112.86,13.861,112.793,13.746,112.627,13.712z M125.993,6.554v7.176c0,2.747-1.132,3.179-2.796,3.179
	c-0.4,0-0.983-0.032-1.631-0.167c-0.15-0.032-0.251-0.083-0.284-0.299l-0.083-0.584c-0.033-0.199,0.083-0.348,0.283-0.348h1.365
	c1.198,0,1.266-0.3,1.266-1.782V13.23c-0.4,0.781-1.115,1.082-1.732,1.082c-0.911,0-1.489-0.493-1.783-1.667
	c-0.156-0.628-0.232-1.449-0.232-2.495c0-2.629,0.932-3.977,2.397-3.977c0.616,0,1.231,0.282,1.631,0.798l0.167-0.466
	c0.05-0.149,0.149-0.233,0.299-0.233h0.849C125.877,6.272,125.993,6.371,125.993,6.554z M124.063,8.236
	c-0.267-0.417-0.583-0.599-0.899-0.599c-0.484,0-0.816,0.532-0.816,2.48c0,1.494,0.142,2.279,0.363,2.528
	c0.052,0.057,0.109,0.084,0.169,0.084c0.095,0,0.183-0.021,0.277-0.084l0,0c0.216-0.147,0.463-0.51,0.906-1.313V8.236z
	 M73.076,6.554v7.176c0,2.747-1.132,3.179-2.796,3.179c-0.4,0-0.983-0.032-1.631-0.167c-0.15-0.032-0.251-0.083-0.284-0.299
	l-0.083-0.584c-0.033-0.199,0.083-0.348,0.283-0.348h1.365c1.198,0,1.266-0.3,1.266-1.782V13.23c-0.4,0.781-1.115,1.082-1.732,1.082
	c-0.91,0-1.489-0.493-1.783-1.667c-0.156-0.628-0.232-1.449-0.232-2.495c0-2.629,0.932-3.977,2.398-3.977
	c0.616,0,1.231,0.282,1.631,0.798l0.167-0.466c0.049-0.149,0.149-0.233,0.299-0.233h0.849C72.961,6.272,73.076,6.371,73.076,6.554z
	 M71.146,8.236c-0.268-0.417-0.583-0.599-0.899-0.599c-0.484,0-0.816,0.532-0.816,2.48c0,1.494,0.141,2.279,0.363,2.528
	c0.052,0.057,0.109,0.084,0.17,0.084c0.095,0,0.183-0.021,0.277-0.084c0.216-0.147,0.463-0.51,0.906-1.313L71.146,8.236
	L71.146,8.236z M120.183,13.979c0-0.133-0.066-0.25-0.233-0.283l-0.831-0.182V9.369c0-2.247-0.583-3.28-1.882-3.28
	c-0.798,0-1.398,0.317-1.963,1.382l-0.117-1.031c-0.016-0.184-0.149-0.267-0.349-0.25l-1.998,0.182
	c-0.167,0.017-0.25,0.133-0.25,0.283v0.599c0,0.133,0.066,0.25,0.233,0.283l0.833,0.184v4.924v1.866c0,0.25,0.149,0.466,0.466,0.466
	h0.998c0.283,0,0.466-0.198,0.466-0.466v-1.866l0,0V9.051c0.649-1.149,0.916-1.397,1.198-1.397c0.284,0,0.433,0.383,0.433,1.93
	v5.195c0,0.214,0.15,0.299,0.35,0.282l2.396-0.199c0.167-0.017,0.25-0.135,0.25-0.283l0,0L120.183,13.979L120.183,13.979z
	 M100.775,13.695l-0.833-0.182v-0.869V6.47c0-0.216-0.149-0.299-0.349-0.282l-2.397,0.199c-0.167,0.017-0.25,0.133-0.25,0.283v0.599
	c0,0.133,0.066,0.25,0.233,0.283l0.833,0.182v4.908v2.134c0,0.214,0.15,0.299,0.349,0.282l2.398-0.199
	c0.167-0.017,0.25-0.135,0.25-0.283v-0.599C101.008,13.846,100.942,13.729,100.775,13.695z M105.07,13.361
	c-0.101-0.149-0.266-0.165-0.4-0.066c-0.332,0.25-0.549,0.332-0.716,0.332s-0.25-0.083-0.25-0.699V7.701h1.282
	c0.165,0,0.283-0.1,0.283-0.283V6.552c0-0.182-0.117-0.282-0.283-0.282h-1.282V4.107c0-0.167-0.117-0.351-0.383-0.285l-0.798,0.184
	c-0.183,0.034-0.284,0.15-0.333,0.383l-0.416,1.881h-0.699c-0.165,0-0.282,0.1-0.282,0.282v0.866c0,0.184,0.117,0.283,0.282,0.283
	h0.699v4.942v0.386c0,1.547,0.649,2.129,1.649,2.129c0.715,0,1.314-0.25,1.73-0.666c0.068-0.066,0.2-0.199,0.25-0.282
	c0.084-0.133,0.084-0.267-0.016-0.4L105.07,13.361z M82.165,8.403L82.165,8.403c0-0.501,0.25-0.849,0.765-0.849
	c0.367,0,0.734,0.115,1.249,0.4c0.183,0.1,0.316,0.049,0.4-0.084l0.382-0.666c0.084-0.149,0.067-0.282-0.066-0.381
	c-0.649-0.484-1.381-0.734-2.181-0.734c-1.564,0-2.514,0.967-2.514,2.48c0,2.692,2.96,2.505,3.044,4.076
	c0.001,0.023,0.003,0.044,0.003,0.069c0,0.565-0.283,0.95-0.816,0.95c-0.466,0-0.831-0.101-1.381-0.4
	c-0.233-0.135-0.383-0.067-0.483,0.115l-0.316,0.55l0,0c-0.117,0.201-0.084,0.383,0.099,0.499c0.616,0.45,1.348,0.732,2.247,0.732
	c1.63,0,2.606-0.973,2.646-2.515c0-0.032,0.002-0.064,0.002-0.097C85.245,9.749,82.165,10.066,82.165,8.403z M96.647,13.312
	c0.116,0.133,0.116,0.25-0.016,0.434c-0.6,0.832-1.748,1.414-2.73,1.414c-1.228,0-2.327-0.352-2.715-2.515
	c-0.097-0.536-0.149-1.183-0.149-1.962c0-3.545,1.115-4.594,2.897-4.594c1.847,0,2.68,0.983,2.68,4.029v0.599
	c0,0.184-0.117,0.283-0.35,0.3l-3.229,0.316v0.133c0,0.472,0.028,0.864,0.094,1.18c0.141,0.663,0.451,0.983,1.038,0.983
	c1.099,0,1.565-0.83,1.914-0.83c0.101,0,0.167,0.032,0.25,0.132L96.647,13.312z M93.035,9.916l1.631-0.132
	c0-1.765-0.216-2.381-0.781-2.381C93.434,7.404,93.035,7.804,93.035,9.916z M79.685,13.312c0.117,0.133,0.117,0.25-0.016,0.434
	c-0.6,0.832-1.748,1.414-2.73,1.414c-1.227,0-2.328-0.352-2.715-2.515c-0.097-0.536-0.149-1.183-0.149-1.962
	c0-3.545,1.116-4.594,2.897-4.594c1.848,0,2.68,0.983,2.68,4.029v0.599c0,0.184-0.117,0.283-0.35,0.3l-3.229,0.316v0.133
	c0,0.472,0.028,0.864,0.094,1.18c0.141,0.663,0.452,0.983,1.038,0.983c1.099,0,1.565-0.83,1.915-0.83
	c0.099,0,0.165,0.032,0.25,0.132L79.685,13.312z M76.072,9.916l1.631-0.132c0-1.765-0.216-2.381-0.782-2.381
	C76.472,7.404,76.072,7.804,76.072,9.916z M90.288,13.528h-2.597l0.447-0.884l2.217-4.392c0.117-0.199,0.2-0.466,0.2-0.8V6.553
	c0-0.182-0.117-0.282-0.282-0.282h-4.295c-0.184,0-0.283,0.116-0.283,0.282v0.882c0,0.184,0.116,0.285,0.283,0.285h2.547
	l-2.493,4.924l-0.187,0.369c-0.133,0.216-0.2,0.398-0.2,0.633v1.048c0,0.184,0.117,0.282,0.284,0.282h4.361
	c0.183,0,0.283-0.115,0.283-0.282v-0.882C90.571,13.628,90.454,13.528,90.288,13.528z M35.671,13.459H35.3
	c-0.523,0-0.728,0.193-0.728,0.771v0.233c0,0.562,0.205,0.769,0.728,0.769h0.371c0.521,0,0.728-0.207,0.728-0.769V14.23
	C36.399,13.653,36.193,13.459,35.671,13.459z M33.039,13.603h-2.598l0.447-0.884l2.217-4.392c0.117-0.199,0.2-0.467,0.2-0.798V6.63
	c0-0.184-0.116-0.283-0.283-0.283h-4.295c-0.183,0-0.283,0.116-0.283,0.283v0.882c0,0.182,0.116,0.282,0.283,0.282h2.547
	l-2.493,4.925l-0.188,0.368c-0.132,0.218-0.2,0.4-0.2,0.633v1.049c0,0.182,0.117,0.283,0.284,0.283h4.361
	c0.183,0,0.283-0.118,0.283-0.283v-0.882C33.322,13.705,33.206,13.603,33.039,13.603z M27.727,14.091v0.599
	c0,0.149-0.083,0.267-0.25,0.283l-1.998,0.182c-0.2,0.015-0.332-0.067-0.349-0.25l-0.101-0.982
	c-0.349,0.599-0.831,1.331-1.814,1.331c-1.198,0-1.914-0.8-1.914-2.497v-0.018c0.01-2.332,1.652-2.993,3.046-2.993h0.383V8.929
	c0-0.882-0.299-1.281-0.932-1.281c-0.583,0-0.998,0.349-1.431,0.847c-0.167,0.184-0.301,0.25-0.483,0.084l-0.5-0.417
	c-0.149-0.116-0.165-0.317-0.033-0.498c0.633-0.85,1.648-1.466,2.763-1.466c1.732,0,2.548,0.965,2.548,2.613v4.81l0.831,0.184
	C27.661,13.841,27.727,13.956,27.727,14.091z M24.731,11.111h-0.383c-0.631,0-1.081,0.365-1.081,1.431c0,0.069,0,0.135,0.003,0.198
	c0.022,0.711,0.167,0.951,0.396,0.951c0.163,0,0.415-0.169,0.871-0.951c0.062-0.106,0.125-0.219,0.194-0.348L24.731,11.111
	L24.731,11.111z M20.581,13.455c-0.1-0.15-0.266-0.167-0.4-0.067c-0.333,0.25-0.549,0.334-0.716,0.334c-0.166,0-0.25-0.084-0.25-0.7
	V7.795h1.415c0.166,0,0.283-0.1,0.283-0.282V6.647c0-0.184-0.116-0.283-0.283-0.283h-1.415V4.199c0-0.165-0.117-0.349-0.383-0.282
	l-0.799,0.182C17.85,4.133,17.75,4.249,17.7,4.482l-0.416,1.881h-0.699c-0.166,0-0.283,0.1-0.283,0.283v0.866
	c0,0.182,0.117,0.282,0.283,0.282h0.699v4.942v0.385c0,1.549,0.649,2.131,1.648,2.131c0.716,0,1.315-0.25,1.731-0.665
	c0.066-0.067,0.199-0.201,0.249-0.283c0.083-0.133,0.083-0.267-0.017-0.4L20.581,13.455z"/>
<path fill="#FFFFFF" d="M4.42,8.549c0.335,0.147,1.067,0,1.27-0.13c0.35-0.133,0.978-0.847,1.052-1.417
	c0.071-0.364-0.147-0.7-0.277-0.934H6.333c-0.366,0-0.569,0-0.95-0.133c-0.203,0-1.034,0.367-1.255,0.703
	C3.85,7.132,3.924,8.343,4.42,8.549z M7.514,7.513c0.089,0.409,0.569,0.409,0.935,0.409c0.262,0,0.963-1.14,1.212-1.14
	c0.188-0.144,0.262-0.903,0.188-1.358c0-0.333-0.48-0.7-0.846-0.7c-0.495,0-1.197,0.367-1.621,1.155
	c-0.086,0.277,0,0.277,0.046,0.613C7.514,6.782,7.603,7.132,7.514,7.513z M12.257,6.228c0.074-0.073,0.132-0.35,0.132-0.423
	c0.132-0.381,0.074-0.381-0.191-0.206c-0.086,0.059-0.363,0.279-0.422,0.336C11.688,6.228,12.039,6.491,12.257,6.228z M9.922,4.535
	l0.218-0.438c0.351-0.582-0.422-0.073-0.627,0C9.28,4.317,9.661,4.724,9.922,4.535z M6.536,5.599
	C6.742,5.497,6.813,5.28,6.871,5.147c0.249-0.291,0.249-0.35-0.13-0.189C6.464,5.017,6.332,5.091,6.23,5.28
	C6.099,5.497,6.231,5.748,6.536,5.599z M12.521,9.13c-0.132,0.206-0.264,0.265-0.409,0.367c-0.277,0.263,0.086,0.613,0.351,0.409
	c0.203-0.217,0.305-0.409,0.305-0.728C12.768,8.986,12.666,8.854,12.521,9.13z M10.916,10.039c-0.424,0.144-0.424,0.714-0.628,0.974
	c-0.307,0.381-0.498,0.584-0.498,1.025c0,0.319,0.351,1.107,0.965,0.977c0.569-0.13,0.569-0.438,0.874-0.658
	c0.277-0.189,0.483-0.553,0.628-1.064C12.199,10.666,11.907,9.689,10.916,10.039z M9.369,10.666
	c0.145-0.759-0.366-0.977-0.658-1.109C8.508,9.396,8.508,8.609,7.939,8.476l0,0c-0.335-0.056-1.067,0.22-1.067,0.22
	S6.041,8.854,5.487,9.263c0,0-0.935,0.073-1.43,0.294c-0.643,0.133-1.344,1.109-1.344,1.736c0,0.438,0.424,1.008,0.904,1.152
	c0.307,0.133,0.44,0,0.658,0v0.059c0.145,0.147,0.554,0.875,0.772,1.067c0.292,0.217,0.993,0.35,1.052,0.35h0.074
	c0,0.144,0.292,0.802,0.846,1.208c0.584,0.426,1.562-0.13,1.91-0.48c0.44-0.658,0.585-1.005,0.643-1.505
	C9.369,12.444,9.003,11.933,9.369,10.666z M11.266,9.263c0.363-0.234,0.699-0.714,0.846-1.064c0.145-0.277,0.145-1.067,0.086-1.344
	c0-0.073-0.086-0.073-0.16-0.073c-0.203,0-0.48-0.071-0.861-0.203c-0.262,0-0.612,0.133-1.108,0.686
	C9.79,7.573,9.66,8.053,9.571,8.42C9.514,9.497,10.491,9.689,11.266,9.263z"/>
</svg>
